<svg xmlns="http://www.w3.org/2000/svg" xmlns:xlink="http://www.w3.org/1999/xlink" width="710" zoomAndPan="magnify" viewBox="0 0 532.5 337.499995" height="450" preserveAspectRatio="xMidYMid meet" version="1.0"><defs><g/></defs><path stroke-linecap="butt" transform="matrix(0.74889, 0.000000000000000023, -0.000000000000000023, 0.74889, 129.770742, 100.118271)" fill="none" stroke-linejoin="miter" d="M 68.406875 157.564982 C 71.959005 157.564982 75.125147 156.918192 77.910518 155.619395 C 80.701104 154.320599 83.058759 152.541926 84.993913 150.293809 C 86.929068 148.045691 88.415642 145.479395 89.458852 142.594919 C 90.507278 139.710444 91.028883 136.716431 91.028883 133.612882 C 91.028883 132.027203 90.950642 129.940783 90.79416 127.337974 C 90.632463 124.740381 90.397741 121.923714 90.079562 118.882757 C 89.761383 115.841801 89.30237 112.733035 88.702524 109.566893 C 88.097463 106.395535 87.356784 103.401522 86.464839 100.584855 C 85.578111 97.762972 84.487956 95.290565 83.18916 93.172849 C 81.890364 91.049916 80.382925 89.542478 78.672061 88.65575 C 77.023789 89.92325 75.41203 91.081213 73.826351 92.124423 C 72.240672 93.172849 70.5924 94.043929 68.881536 94.737664 C 67.170671 95.436614 65.397215 95.989515 63.561165 96.401583 C 61.725116 96.813651 59.758665 97.022293 57.667029 97.022293 C 54.944251 97.022293 52.612677 96.766707 50.682738 96.26075 C 48.747584 95.754793 47.130609 94.899361 45.831812 93.694454 C 44.533016 92.489546 43.568047 90.903867 42.936905 88.942632 C 42.300547 86.976182 41.982368 84.503774 41.982368 81.52541 C 41.982368 79.433774 42.49354 77.394298 43.505454 75.396551 C 44.517368 73.398804 45.863108 71.531459 47.542676 69.789298 C 49.222244 68.047137 51.126103 66.44581 53.249035 64.990532 C 55.371967 63.530038 57.557492 62.262538 59.805609 61.188032 C 62.053727 60.10831 64.275764 59.284174 66.461289 58.715624 C 68.646813 58.147075 70.5924 57.860192 72.303264 57.860192 C 73.951536 57.860192 75.312925 57.907137 76.392647 58.001026 C 77.467153 58.094915 78.390394 58.350501 79.146721 58.762569 C 79.908265 59.174637 80.560271 59.805779 81.097524 60.661211 C 81.634777 61.516643 82.156382 62.674606 82.667555 64.1351 C 84.122833 69.074699 85.802401 74.400286 87.701043 80.101428 C 89.604901 85.80257 91.409654 91.66541 93.120519 97.684732 C 94.831383 103.704053 96.271013 109.770319 97.444624 115.888745 C 98.618235 122.001955 99.202432 127.911739 99.202432 133.612882 C 99.202432 138.682882 98.49305 142.975691 97.063852 146.491308 C 95.639871 150.012142 93.772525 152.891401 91.456599 155.144735 C 89.145889 157.392852 86.517 159.119365 83.569932 160.324272 C 80.622864 161.523964 77.660147 162.301155 74.681783 162.65063 C 71.703419 163.000106 68.818943 163.078346 66.033573 162.890569 C 63.242986 162.697575 60.833171 162.332451 58.809344 161.795198 C 56.7803 161.257945 55.241566 160.637235 54.198356 159.943501 C 53.155146 159.24455 52.899559 158.660352 53.436813 158.185692 C 53.974066 157.711031 55.418911 157.377204 57.760918 157.18421 C 60.10814 156.996432 63.655054 157.121618 68.406875 157.564982 Z M 69.736968 65.845964 C 65.047739 66.857878 61.260887 68.266211 58.381628 70.070965 C 55.497152 71.880934 53.342924 73.810872 51.918942 75.871212 C 50.489745 77.931551 49.712553 79.991891 49.587368 82.052231 C 49.462183 84.107354 49.842954 85.865163 50.729683 87.325657 C 51.616411 88.780935 52.899559 89.876305 54.579127 90.606552 C 56.258695 91.331583 58.172986 91.362879 60.327214 90.700441 C 62.481443 90.032787 64.781721 88.593157 67.217616 86.376336 C 69.658727 84.154299 72.115487 80.862971 74.587894 76.491922 C 74.587894 75.412199 74.603542 74.238588 74.634838 72.971088 C 74.666135 71.703588 74.556598 70.550841 74.301011 69.502415 C 74.045425 68.459205 73.570764 67.588125 72.87703 66.889174 C 72.178079 66.190224 71.134869 65.845964 69.736968 65.845964 Z M 98.91555 68.219267 C 98.91555 67.838495 98.931198 67.160409 98.962494 66.174575 C 98.999007 65.193958 99.014655 64.166396 99.014655 63.086674 C 99.014655 62.012168 99.030303 61.010686 99.061599 60.092662 C 99.092895 59.174637 99.108544 58.522631 99.108544 58.147075 C 99.551908 57.385532 100.073513 56.639637 100.673358 55.90939 C 101.27842 55.184359 101.909562 54.673186 102.577217 54.391519 C 103.244871 54.104637 103.969902 54.057692 104.762741 54.24547 C 105.555581 54.438464 106.364069 55.069606 107.188205 56.149328 L 107.188205 58.147075 C 107.125612 58.460038 106.995211 59.205933 106.807433 60.379544 C 106.614439 61.553155 106.395365 62.836304 106.139779 64.228989 C 105.889408 65.621674 105.64947 66.904822 105.430396 68.078434 C 105.206106 69.252045 105.096569 69.992724 105.096569 70.310903 C 105.096569 71.51581 105.221754 73.018033 105.47734 74.828002 C 105.727711 76.632755 106.092834 78.515749 106.567495 80.4822 C 107.042155 82.443434 107.647217 84.409885 108.377464 86.376336 C 109.102495 88.337571 109.973575 90.095379 110.990705 91.649762 C 112.002618 93.204145 113.129285 94.487293 114.365489 95.499207 C 115.596477 96.51112 117.041322 97.022293 118.689594 97.022293 C 120.713421 97.022293 122.507742 96.479824 124.056909 95.405318 C 125.611292 94.325596 126.957033 92.93291 128.099348 91.222046 C 129.236447 89.511182 130.175335 87.576027 130.900366 85.421799 C 131.630613 83.26757 132.214811 81.097694 132.658175 78.912169 C 133.101539 76.726644 133.419718 74.61936 133.612712 72.590317 C 133.80049 70.566489 133.894379 68.787816 133.894379 67.269946 C 133.894379 65.746859 133.784842 64.30723 133.560552 62.945841 C 133.341478 61.584452 133.070243 60.233495 132.75728 58.903402 C 132.439101 57.57331 132.167866 56.258865 131.948792 54.960069 C 131.724502 53.661272 131.614965 52.346828 131.614965 51.016735 C 131.614965 49.811828 132.042681 48.956396 132.898113 48.450439 C 133.753546 47.944482 134.718515 47.688895 135.798237 47.688895 C 137.12833 47.688895 138.202836 48.085315 139.026972 48.878155 C 139.851108 49.670994 140.503114 50.66726 140.977774 51.872167 C 141.452435 53.077075 141.770614 54.454112 141.927095 56.008495 C 142.083577 57.557661 142.167034 59.096396 142.167034 60.614267 C 142.167034 62.137353 142.130521 63.576983 142.067929 64.938372 C 142.005336 66.304977 141.97404 67.395131 141.97404 68.219267 C 141.97404 70.373495 141.817558 72.814607 141.499379 75.537385 C 141.1812 78.265379 140.628299 81.066397 139.835459 83.950873 C 139.04262 86.835348 138.062003 89.667663 136.888391 92.45825 C 135.71478 95.24362 134.290799 97.731676 132.611231 99.917201 C 130.931663 102.102726 129.001724 103.86575 126.816199 105.195843 C 124.630675 106.525936 122.173915 107.188374 119.445921 107.188374 C 116.597958 107.188374 114.094254 106.510288 111.940026 105.148899 C 109.785797 103.782294 107.965396 101.97754 106.473606 99.729423 C 104.987032 97.481306 103.73518 94.930657 102.71805 92.077478 C 101.706136 89.224299 100.928945 86.376336 100.391692 83.523157 C 99.854439 80.669978 99.473667 77.900255 99.249377 75.208774 C 99.030303 72.512076 98.91555 70.185718 98.91555 68.219267 Z M 125.246169 136.940721 C 127.082218 136.940721 128.761786 137.415382 130.284873 138.364703 C 131.802743 139.314024 133.40407 140.346802 135.083638 141.452604 C 136.763206 142.563623 138.583608 143.596401 140.550058 144.545722 C 142.511293 145.495043 144.795923 145.969703 147.393515 145.969703 C 149.991108 145.969703 152.526108 145.635876 154.9933 144.973438 C 157.465707 144.305784 159.682528 143.29387 161.648979 141.932481 C 163.61543 140.565876 165.195893 138.792419 166.4008 136.606894 C 167.605708 134.421369 168.205554 131.839425 168.205554 128.861061 C 168.205554 123.916245 167.809134 118.783653 167.02151 113.463282 C 166.228671 108.142911 165.211541 102.832973 163.975337 97.543898 C 162.74435 92.249608 161.409041 87.101367 159.985059 82.099175 C 158.561078 77.091767 157.246633 72.465131 156.041726 68.219267 C 156.041726 68.156674 156.01043 68.000193 155.947837 67.744606 C 155.880028 67.48902 155.848732 67.332539 155.848732 67.269946 C 155.848732 66.002446 156.292096 65.131366 157.184041 64.656705 C 158.070769 64.182045 159.02009 63.942106 160.032004 63.942106 C 160.28759 63.942106 160.668362 63.973403 161.174319 64.035995 C 161.680276 64.103804 161.998455 64.1351 162.12364 64.1351 C 164.09009 69.074699 165.941788 74.129051 167.683949 79.29294 C 169.426109 84.45683 170.964844 89.69896 172.294937 95.024546 C 173.625029 100.344917 174.668239 105.686152 175.429782 111.037819 C 176.191326 116.394702 176.572097 121.699424 176.572097 126.962418 C 176.572097 131.077882 175.857499 134.817789 174.433517 138.176925 C 173.009535 141.536061 171.027437 144.384024 168.492436 146.731247 C 165.957436 149.073253 162.932127 150.883222 159.41651 152.150722 C 155.900892 153.413006 152.082744 154.049364 147.962065 154.049364 C 145.239287 154.049364 142.526941 153.746834 139.835459 153.146988 C 137.143978 152.541926 134.702867 151.576957 132.517342 150.246864 C 130.331817 148.916772 128.574008 147.158963 127.238699 144.973438 C 125.908607 142.787913 125.246169 140.106864 125.246169 136.940721 Z M 147.581293 40.751549 C 147.581293 40.558556 147.581293 40.183 147.581293 39.609234 C 147.581293 39.040685 147.643886 38.456488 147.774287 37.851426 C 147.899472 37.25158 148.118546 36.724759 148.436725 36.281395 C 148.754904 35.838031 149.229565 35.618956 149.860707 35.618956 C 150.940429 35.618956 151.764565 35.75979 152.333114 36.046673 C 152.90688 36.333555 153.313732 36.677815 153.569318 37.089882 C 153.824905 37.50195 153.981386 38.007907 154.043979 38.612969 C 154.106571 39.212815 154.137868 39.896117 154.137868 40.65766 C 154.137868 41.163617 154.106571 41.732167 154.043979 42.368525 C 153.981386 42.999667 153.856201 43.604729 153.663207 44.173278 C 153.475429 44.741827 153.15725 45.20084 152.713886 45.550315 C 152.270522 45.89979 151.670676 46.07192 150.909133 46.07192 C 150.14759 46.07192 149.547744 45.89979 149.10438 45.550315 C 148.661016 45.20084 148.327188 44.773124 148.102898 44.267167 C 147.883824 43.76121 147.737775 43.192661 147.675182 42.556303 C 147.61259 41.925161 147.581293 41.320099 147.581293 40.751549 Z M 176.379104 80.576089 C 176.379104 77.15436 176.791171 73.732631 177.615307 70.310903 C 178.439443 66.889174 179.753888 63.816921 181.558641 61.088927 C 183.36861 58.366149 185.710616 56.149328 188.595092 54.438464 C 191.479567 52.727599 194.979537 51.872167 199.095 51.872167 C 201.442222 51.872167 203.502562 52.299883 205.276019 53.155315 C 207.049476 54.010748 208.541266 55.137414 209.740957 56.5301 C 210.945865 57.922785 211.848241 59.555408 212.453303 61.422754 C 213.053149 63.295316 213.35568 65.240903 213.35568 67.269946 C 213.35568 70.498681 212.609785 73.638743 211.12321 76.6797 C 209.63142 79.720656 207.633673 82.39649 205.135185 84.712416 C 202.631482 87.023126 199.762654 88.765287 196.528703 89.938898 C 193.299969 91.112509 190.003425 91.378528 186.644289 90.747386 C 186.712098 92.583435 187.327592 94.059577 188.501203 95.16538 C 189.669598 96.276398 191.083148 97.116182 192.731419 97.684732 C 194.374475 98.253281 196.085339 98.618404 197.864012 98.780102 C 199.637469 98.936584 201.217932 99.014824 202.615833 99.014824 C 204.071111 99.014824 205.4325 98.889639 206.7 98.634053 C 207.9675 98.383682 209.235 98.0968 210.5025 97.77862 C 211.770001 97.465658 213.053149 97.178775 214.351945 96.923188 C 215.650742 96.672818 217.027779 96.542417 218.488273 96.542417 C 219.056822 96.542417 219.630587 96.573713 220.199137 96.641522 C 220.767686 96.704114 221.304939 96.844948 221.816112 97.069238 C 222.322069 97.288312 222.734137 97.637787 223.052316 98.112448 C 223.365279 98.587108 223.526977 99.176522 223.526977 99.870256 C 223.526977 101.075164 223.083612 102.071429 222.196884 102.864269 C 221.304939 103.657108 220.183489 104.340411 218.8221 104.90896 C 217.455495 105.47751 215.953272 105.905226 214.305001 106.192109 C 212.656729 106.478991 211.055402 106.698065 209.506235 106.859763 C 207.951852 107.016244 206.527871 107.110133 205.229074 107.14143 C 203.930278 107.172726 202.965309 107.188374 202.328951 107.188374 C 198.27608 107.188374 194.630061 106.541584 191.396111 105.242788 C 188.167376 103.943991 185.444598 102.139238 183.222561 99.823312 C 181.00574 97.512602 179.310523 94.722015 178.136912 91.461984 C 176.968517 88.196737 176.379104 84.566367 176.379104 80.576089 Z M 186.456511 74.400286 C 186.456511 76.617107 186.759042 78.234082 187.358888 79.245996 C 187.958734 80.25791 189.434876 80.769082 191.776882 80.769082 C 193.425154 80.769082 195.042129 80.466552 196.627808 79.86149 C 198.208271 79.261644 199.653117 78.42186 200.951914 77.347354 C 202.25071 76.267632 203.278272 75.000132 204.039815 73.544854 C 204.801358 72.08436 205.18213 70.498681 205.18213 68.787816 C 205.18213 67.838495 205.103889 66.857878 204.942192 65.845964 C 204.78571 64.828835 204.451883 63.895162 203.945926 63.03973 C 203.439969 62.184297 202.787963 61.485347 201.995123 60.948094 C 201.202284 60.410841 200.174722 60.139606 198.907222 60.139606 C 197.00858 60.139606 195.282068 60.567322 193.727685 61.422754 C 192.173302 62.278186 190.858857 63.389205 189.784351 64.750594 C 188.704629 66.111983 187.880493 67.635069 187.311944 69.314637 C 186.743394 70.994205 186.456511 72.689422 186.456511 74.400286 Z M 227.324261 59.096396 C 227.324261 58.903402 227.355557 58.746921 227.423366 58.621736 C 227.423366 58.491334 227.454662 58.334853 227.517255 58.147075 C 227.767625 57.828896 228.148397 57.416828 228.654353 56.910871 C 229.165526 56.404914 229.478489 56.149328 229.60889 56.149328 L 248.710064 56.149328 C 248.710064 55.450377 248.616175 54.344575 248.428398 52.821488 C 248.235404 51.303618 248.063274 49.62405 247.901577 47.782784 C 247.745095 45.946735 247.698151 44.032445 247.760743 42.034698 C 247.823336 40.036951 248.094571 38.232197 248.569231 36.615222 C 249.043892 34.998247 249.805435 33.668154 250.848645 32.624944 C 251.897071 31.576518 253.367997 31.054913 255.271855 31.054913 C 255.271855 37.455006 255.715219 42.587599 256.601948 46.452692 C 257.488676 50.317784 258.677935 53.296149 260.164509 55.387785 C 261.6563 57.479421 263.351516 58.84081 265.250158 59.477168 C 267.154016 60.10831 269.099603 60.379544 271.09735 60.285655 C 273.089881 60.18655 275.040683 59.889236 276.939325 59.378063 C 278.843183 58.872106 280.5384 58.522631 282.024974 58.334853 C 283.516764 58.147075 284.706023 58.287908 285.592752 58.762569 C 286.47948 59.237229 286.922844 60.363896 286.922844 62.137353 C 286.922844 63.467446 286.620313 64.416767 286.020468 64.990532 C 285.415406 65.559082 284.262659 66.002446 282.551795 66.320625 C 282.040622 66.383217 281.200838 66.492755 280.032443 66.649236 C 278.858832 66.810934 277.544387 66.951767 276.083893 67.076952 C 274.628615 67.207353 273.074232 67.348187 271.431177 67.504668 C 269.782905 67.666366 268.228522 67.807199 266.773244 67.932384 C 265.31275 68.062785 263.982658 68.141026 262.77775 68.172323 C 261.572843 68.203619 260.686114 68.219267 260.117565 68.219267 C 260.117565 68.537446 260.086269 69.074699 260.023676 69.836242 C 259.961084 70.597786 259.929787 71.103742 259.929787 71.354113 C 259.929787 74.144699 260.373151 76.851829 261.25988 79.485934 C 262.146608 82.114823 263.111578 84.728064 264.160004 87.325657 C 265.203213 89.92325 266.168183 92.520842 267.054911 95.118435 C 267.94164 97.716028 268.385004 100.40751 268.385004 103.198096 C 268.385004 103.704053 268.338059 104.225658 268.24417 104.768127 C 268.150282 105.30538 267.957288 105.780041 267.675621 106.192109 C 267.388738 106.604177 266.97667 106.922356 266.439417 107.14143 C 265.902164 107.36572 265.156269 107.318775 264.206948 107.000596 C 261.797133 106.364238 260.008028 105.002849 258.834417 102.911213 C 257.660806 100.819577 256.789725 98.336738 256.221176 95.452262 C 255.652626 92.567787 255.271855 89.511182 255.078861 86.277231 C 254.891083 83.048496 254.588552 80.023187 254.176484 77.201305 C 253.764417 74.384638 253.117626 71.974823 252.230898 69.977076 C 251.344169 67.984545 249.914972 66.763989 247.953737 66.320625 L 229.60889 62.137353 C 229.353304 62.137353 228.972532 61.866118 228.466576 61.328865 C 227.960619 60.791612 227.64244 60.395192 227.517255 60.139606 C 227.454662 60.014421 227.423366 59.857939 227.423366 59.664945 C 227.355557 59.53976 227.324261 59.346766 227.324261 59.096396 Z M 331.405316 94.737664 C 328.995501 96.385935 326.919513 97.856861 325.177353 99.160874 C 323.435192 100.45967 321.739976 101.549824 320.091704 102.436553 C 318.443433 103.323281 316.685624 103.990936 314.818278 104.4343 C 312.945716 104.877664 310.650654 105.096738 307.927876 105.096738 C 302.03374 105.096738 297.662691 103.531923 294.809511 100.391861 C 291.956332 97.257016 290.532351 92.583435 290.532351 86.376336 C 290.532351 83.966521 290.85053 81.462817 291.481672 78.865224 C 292.11803 76.267632 293.051703 73.685687 294.287906 71.119391 C 295.52411 68.553094 296.995036 66.111983 298.705901 63.801273 C 300.416765 61.485347 302.351919 59.445871 304.506148 57.667198 C 306.660376 55.893742 308.955438 54.485408 311.396549 53.442198 C 313.837661 52.393772 316.419605 51.872167 319.142383 51.872167 C 323.706427 52.315531 327.284637 53.442198 329.882229 55.246951 C 332.479822 57.051705 334.446273 59.362415 335.776366 62.184297 C 337.106458 65.00618 338.024483 68.141026 338.53044 71.594051 C 339.036397 75.047076 339.432816 78.609638 339.719699 82.286953 C 340.006582 85.964268 340.371705 89.636367 340.81507 93.313682 C 341.258434 96.985781 342.176459 100.376213 343.569144 103.484979 C 342.745008 105.576615 341.967817 107.047541 341.242786 107.902973 C 340.512539 108.758405 339.704051 108.899238 338.817323 108.330689 C 337.930594 107.76214 336.897816 106.364238 335.729421 104.147417 C 334.55581 101.930596 333.11618 98.79575 331.405316 94.737664 Z M 298.612012 86.564114 C 298.612012 90.178836 299.290098 92.823373 300.656703 94.502941 C 302.018092 96.182509 304.443555 97.022293 307.927876 97.022293 C 310.525469 97.022293 313.013525 96.558065 315.386827 95.64004 C 317.765346 94.722015 319.841334 93.454515 321.614791 91.83754 C 323.388248 90.225781 324.812229 88.274978 325.891951 85.995564 C 326.966458 83.710935 327.508927 81.175934 327.508927 78.390564 C 327.508927 77.248249 327.540223 75.652138 327.602816 73.591798 C 327.665408 71.531459 327.540223 69.486767 327.222044 67.457724 C 326.903865 65.433896 326.304019 63.676088 325.417291 62.184297 C 324.530562 60.697723 323.195254 59.951828 321.421797 59.951828 C 318.13047 59.951828 315.084297 60.791612 312.298926 62.47118 C 309.508339 64.150748 307.103741 66.289329 305.074697 68.886921 C 303.045654 71.484514 301.465191 74.348125 300.322876 77.488187 C 299.180561 80.623033 298.612012 83.648342 298.612012 86.564114 Z M 298.612012 86.564114 " stroke="#ffffff" stroke-width="7.300125" stroke-opacity="1" stroke-miterlimit="4"/><g fill="#4093a4" fill-opacity="1"><g transform="translate(161.212441, 180.249553)"><g><path d="M 19.78125 37.875 C 22.445312 37.875 24.820312 37.382812 26.90625 36.40625 C 28.988281 35.4375 30.753906 34.109375 32.203125 32.421875 C 33.648438 30.734375 34.765625 28.8125 35.546875 26.65625 C 36.335938 24.5 36.734375 22.257812 36.734375 19.9375 C 36.734375 18.75 36.671875 17.179688 36.546875 15.234375 C 36.429688 13.285156 36.253906 11.171875 36.015625 8.890625 C 35.773438 6.617188 35.429688 4.296875 34.984375 1.921875 C 34.535156 -0.453125 33.976562 -2.691406 33.3125 -4.796875 C 32.644531 -6.910156 31.820312 -8.757812 30.84375 -10.34375 C 29.875 -11.9375 28.75 -13.066406 27.46875 -13.734375 C 26.238281 -12.785156 25.03125 -11.921875 23.84375 -11.140625 C 22.65625 -10.359375 21.421875 -9.707031 20.140625 -9.1875 C 18.859375 -8.664062 17.53125 -8.25 16.15625 -7.9375 C 14.78125 -7.625 13.3125 -7.46875 11.75 -7.46875 C 9.707031 -7.46875 7.960938 -7.65625 6.515625 -8.03125 C 5.066406 -8.414062 3.851562 -9.054688 2.875 -9.953125 C 1.90625 -10.859375 1.179688 -12.046875 0.703125 -13.515625 C 0.234375 -14.992188 0 -16.847656 0 -19.078125 C 0 -20.640625 0.378906 -22.164062 1.140625 -23.65625 C 1.898438 -25.15625 2.90625 -26.554688 4.15625 -27.859375 C 5.414062 -29.171875 6.835938 -30.367188 8.421875 -31.453125 C 10.015625 -32.546875 11.65625 -33.492188 13.34375 -34.296875 C 15.03125 -35.109375 16.691406 -35.726562 18.328125 -36.15625 C 19.960938 -36.582031 21.421875 -36.796875 22.703125 -36.796875 C 23.941406 -36.796875 24.960938 -36.757812 25.765625 -36.6875 C 26.578125 -36.625 27.265625 -36.4375 27.828125 -36.125 C 28.398438 -35.8125 28.882812 -35.332031 29.28125 -34.6875 C 29.6875 -34.050781 30.082031 -33.191406 30.46875 -32.109375 C 31.5625 -28.398438 32.816406 -24.410156 34.234375 -20.140625 C 35.660156 -15.867188 37.015625 -11.476562 38.296875 -6.96875 C 39.578125 -2.46875 40.65625 2.070312 41.53125 6.65625 C 42.414062 11.238281 42.859375 15.664062 42.859375 19.9375 C 42.859375 23.726562 42.320312 26.941406 41.25 29.578125 C 40.1875 32.210938 38.785156 34.367188 37.046875 36.046875 C 35.316406 37.734375 33.347656 39.023438 31.140625 39.921875 C 28.929688 40.828125 26.710938 41.410156 24.484375 41.671875 C 22.253906 41.929688 20.09375 41.988281 18 41.84375 C 15.914062 41.707031 14.113281 41.4375 12.59375 41.03125 C 11.082031 40.632812 9.929688 40.171875 9.140625 39.640625 C 8.359375 39.117188 8.171875 38.679688 8.578125 38.328125 C 8.984375 37.972656 10.0625 37.722656 11.8125 37.578125 C 13.570312 37.441406 16.226562 37.539062 19.78125 37.875 Z M 20.78125 -30.828125 C 17.269531 -30.066406 14.4375 -29.007812 12.28125 -27.65625 C 10.125 -26.300781 8.507812 -24.851562 7.4375 -23.3125 C 6.375 -21.769531 5.789062 -20.226562 5.6875 -18.6875 C 5.59375 -17.144531 5.878906 -15.828125 6.546875 -14.734375 C 7.210938 -13.640625 8.171875 -12.816406 9.421875 -12.265625 C 10.679688 -11.722656 12.117188 -11.703125 13.734375 -12.203125 C 15.347656 -12.703125 17.066406 -13.78125 18.890625 -15.4375 C 20.722656 -17.101562 22.566406 -19.570312 24.421875 -22.84375 C 24.421875 -23.65625 24.429688 -24.535156 24.453125 -25.484375 C 24.472656 -26.429688 24.390625 -27.296875 24.203125 -28.078125 C 24.015625 -28.859375 23.65625 -29.507812 23.125 -30.03125 C 22.601562 -30.5625 21.820312 -30.828125 20.78125 -30.828125 Z M 20.78125 -30.828125 "/></g></g></g><g fill="#4093a4" fill-opacity="1"><g transform="translate(202.42554, 180.249553)"><g><path d="M 1.421875 -29.046875 C 1.421875 -29.328125 1.429688 -29.832031 1.453125 -30.5625 C 1.484375 -31.300781 1.5 -32.070312 1.5 -32.875 C 1.5 -33.6875 1.507812 -34.4375 1.53125 -35.125 C 1.550781 -35.8125 1.5625 -36.300781 1.5625 -36.59375 C 1.894531 -37.15625 2.285156 -37.707031 2.734375 -38.25 C 3.191406 -38.800781 3.664062 -39.179688 4.15625 -39.390625 C 4.65625 -39.609375 5.203125 -39.644531 5.796875 -39.5 C 6.390625 -39.363281 6.992188 -38.890625 7.609375 -38.078125 L 7.609375 -36.59375 C 7.566406 -36.351562 7.472656 -35.789062 7.328125 -34.90625 C 7.191406 -34.03125 7.023438 -33.070312 6.828125 -32.03125 C 6.640625 -30.988281 6.460938 -30.023438 6.296875 -29.140625 C 6.128906 -28.265625 6.046875 -27.707031 6.046875 -27.46875 C 6.046875 -26.570312 6.140625 -25.445312 6.328125 -24.09375 C 6.523438 -22.738281 6.800781 -21.328125 7.15625 -19.859375 C 7.507812 -18.390625 7.957031 -16.914062 8.5 -15.4375 C 9.050781 -13.96875 9.707031 -12.648438 10.46875 -11.484375 C 11.226562 -10.328125 12.066406 -9.367188 12.984375 -8.609375 C 13.910156 -7.847656 14.992188 -7.46875 16.234375 -7.46875 C 17.742188 -7.46875 19.082031 -7.867188 20.25 -8.671875 C 21.414062 -9.484375 22.425781 -10.53125 23.28125 -11.8125 C 24.132812 -13.09375 24.832031 -14.539062 25.375 -16.15625 C 25.914062 -17.769531 26.351562 -19.394531 26.6875 -21.03125 C 27.019531 -22.664062 27.257812 -24.242188 27.40625 -25.765625 C 27.550781 -27.285156 27.625 -28.613281 27.625 -29.75 C 27.625 -30.894531 27.539062 -31.972656 27.375 -32.984375 C 27.207031 -34.003906 27.003906 -35.015625 26.765625 -36.015625 C 26.523438 -37.015625 26.320312 -38 26.15625 -38.96875 C 25.988281 -39.945312 25.90625 -40.929688 25.90625 -41.921875 C 25.90625 -42.828125 26.222656 -43.46875 26.859375 -43.84375 C 27.503906 -44.226562 28.234375 -44.421875 29.046875 -44.421875 C 30.035156 -44.421875 30.835938 -44.125 31.453125 -43.53125 C 32.078125 -42.9375 32.566406 -42.1875 32.921875 -41.28125 C 33.273438 -40.382812 33.507812 -39.351562 33.625 -38.1875 C 33.75 -37.03125 33.8125 -35.878906 33.8125 -34.734375 C 33.8125 -33.597656 33.785156 -32.519531 33.734375 -31.5 C 33.691406 -30.476562 33.671875 -29.660156 33.671875 -29.046875 C 33.671875 -27.429688 33.550781 -25.601562 33.3125 -23.5625 C 33.070312 -21.519531 32.65625 -19.414062 32.0625 -17.25 C 31.46875 -15.09375 30.734375 -12.972656 29.859375 -10.890625 C 28.984375 -8.804688 27.914062 -6.941406 26.65625 -5.296875 C 25.394531 -3.660156 23.945312 -2.34375 22.3125 -1.34375 C 20.675781 -0.351562 18.835938 0.140625 16.796875 0.140625 C 14.660156 0.140625 12.785156 -0.367188 11.171875 -1.390625 C 9.554688 -2.410156 8.191406 -3.757812 7.078125 -5.4375 C 5.960938 -7.125 5.023438 -9.035156 4.265625 -11.171875 C 3.503906 -13.304688 2.921875 -15.441406 2.515625 -17.578125 C 2.117188 -19.710938 1.835938 -21.785156 1.671875 -23.796875 C 1.503906 -25.816406 1.421875 -27.566406 1.421875 -29.046875 Z M 1.421875 -29.046875 "/></g></g></g><g fill="#4093a4" fill-opacity="1"><g transform="translate(239.011953, 180.249553)"><g><path d="M -15.453125 22.421875 C -14.066406 22.421875 -12.804688 22.773438 -11.671875 23.484375 C -10.535156 24.203125 -9.335938 24.972656 -8.078125 25.796875 C -6.816406 26.628906 -5.453125 27.398438 -3.984375 28.109375 C -2.515625 28.828125 -0.804688 29.1875 1.140625 29.1875 C 3.085938 29.1875 4.984375 28.9375 6.828125 28.4375 C 8.679688 27.9375 10.34375 27.175781 11.8125 26.15625 C 13.28125 25.132812 14.46875 23.804688 15.375 22.171875 C 16.28125 20.535156 16.734375 18.601562 16.734375 16.375 C 16.734375 12.664062 16.4375 8.816406 15.84375 4.828125 C 15.25 0.847656 14.488281 -3.117188 13.5625 -7.078125 C 12.632812 -11.046875 11.632812 -14.898438 10.5625 -18.640625 C 9.5 -22.390625 8.515625 -25.859375 7.609375 -29.046875 C 7.609375 -29.085938 7.582031 -29.203125 7.53125 -29.390625 C 7.488281 -29.585938 7.46875 -29.707031 7.46875 -29.75 C 7.46875 -30.695312 7.800781 -31.347656 8.46875 -31.703125 C 9.132812 -32.066406 9.847656 -32.25 10.609375 -32.25 C 10.796875 -32.25 11.078125 -32.222656 11.453125 -32.171875 C 11.835938 -32.128906 12.078125 -32.109375 12.171875 -32.109375 C 13.640625 -28.398438 15.023438 -24.613281 16.328125 -20.75 C 17.640625 -16.882812 18.789062 -12.957031 19.78125 -8.96875 C 20.78125 -4.976562 21.5625 -0.976562 22.125 3.03125 C 22.695312 7.039062 22.984375 11.015625 22.984375 14.953125 C 22.984375 18.035156 22.445312 20.832031 21.375 23.34375 C 20.3125 25.863281 18.832031 28 16.9375 29.75 C 15.039062 31.507812 12.773438 32.863281 10.140625 33.8125 C 7.503906 34.757812 4.644531 35.234375 1.5625 35.234375 C -0.476562 35.234375 -2.503906 35.003906 -4.515625 34.546875 C -6.535156 34.097656 -8.363281 33.375 -10 32.375 C -11.632812 31.382812 -12.953125 30.070312 -13.953125 28.4375 C -14.953125 26.800781 -15.453125 24.796875 -15.453125 22.421875 Z M 1.28125 -49.609375 C 1.28125 -49.753906 1.28125 -50.039062 1.28125 -50.46875 C 1.28125 -50.894531 1.328125 -51.332031 1.421875 -51.78125 C 1.515625 -52.238281 1.679688 -52.628906 1.921875 -52.953125 C 2.160156 -53.285156 2.515625 -53.453125 2.984375 -53.453125 C 3.796875 -53.453125 4.414062 -53.34375 4.84375 -53.125 C 5.269531 -52.914062 5.578125 -52.65625 5.765625 -52.34375 C 5.953125 -52.039062 6.066406 -51.664062 6.109375 -51.21875 C 6.160156 -50.769531 6.1875 -50.257812 6.1875 -49.6875 C 6.1875 -49.300781 6.160156 -48.867188 6.109375 -48.390625 C 6.066406 -47.921875 5.972656 -47.472656 5.828125 -47.046875 C 5.691406 -46.617188 5.457031 -46.273438 5.125 -46.015625 C 4.789062 -45.753906 4.335938 -45.625 3.765625 -45.625 C 3.203125 -45.625 2.753906 -45.753906 2.421875 -46.015625 C 2.085938 -46.273438 1.835938 -46.59375 1.671875 -46.96875 C 1.503906 -47.351562 1.394531 -47.78125 1.34375 -48.25 C 1.300781 -48.726562 1.28125 -49.179688 1.28125 -49.609375 Z M 1.28125 -49.609375 "/></g></g></g><g fill="#4093a4" fill-opacity="1"><g transform="translate(260.437071, 180.249553)"><g><path d="M 1.421875 -19.78125 C 1.421875 -22.34375 1.726562 -24.90625 2.34375 -27.46875 C 2.96875 -30.03125 3.953125 -32.332031 5.296875 -34.375 C 6.648438 -36.414062 8.40625 -38.078125 10.5625 -39.359375 C 12.726562 -40.640625 15.351562 -41.28125 18.4375 -41.28125 C 20.1875 -41.28125 21.726562 -40.957031 23.0625 -40.3125 C 24.394531 -39.675781 25.507812 -38.835938 26.40625 -37.796875 C 27.3125 -36.753906 27.988281 -35.53125 28.4375 -34.125 C 28.882812 -32.726562 29.109375 -31.269531 29.109375 -29.75 C 29.109375 -27.332031 28.550781 -24.984375 27.4375 -22.703125 C 26.320312 -20.429688 24.828125 -18.425781 22.953125 -16.6875 C 21.078125 -14.957031 18.929688 -13.648438 16.515625 -12.765625 C 14.097656 -11.890625 11.628906 -11.691406 9.109375 -12.171875 C 9.160156 -10.796875 9.625 -9.691406 10.5 -8.859375 C 11.375 -8.023438 12.425781 -7.394531 13.65625 -6.96875 C 14.894531 -6.539062 16.175781 -6.269531 17.5 -6.15625 C 18.832031 -6.039062 20.019531 -5.984375 21.0625 -5.984375 C 22.15625 -5.984375 23.175781 -6.078125 24.125 -6.265625 C 25.070312 -6.453125 26.019531 -6.664062 26.96875 -6.90625 C 27.925781 -7.144531 28.890625 -7.359375 29.859375 -7.546875 C 30.828125 -7.734375 31.859375 -7.828125 32.953125 -7.828125 C 33.378906 -7.828125 33.804688 -7.800781 34.234375 -7.75 C 34.660156 -7.707031 35.0625 -7.601562 35.4375 -7.4375 C 35.820312 -7.269531 36.132812 -7.007812 36.375 -6.65625 C 36.613281 -6.300781 36.734375 -5.863281 36.734375 -5.34375 C 36.734375 -4.4375 36.398438 -3.6875 35.734375 -3.09375 C 35.066406 -2.5 34.222656 -1.988281 33.203125 -1.5625 C 32.179688 -1.132812 31.050781 -0.8125 29.8125 -0.59375 C 28.582031 -0.382812 27.382812 -0.21875 26.21875 -0.09375 C 25.0625 0.0195312 23.992188 0.0859375 23.015625 0.109375 C 22.046875 0.128906 21.328125 0.140625 20.859375 0.140625 C 17.816406 0.140625 15.085938 -0.34375 12.671875 -1.3125 C 10.253906 -2.289062 8.210938 -3.644531 6.546875 -5.375 C 4.890625 -7.101562 3.617188 -9.1875 2.734375 -11.625 C 1.859375 -14.070312 1.421875 -16.789062 1.421875 -19.78125 Z M 8.96875 -24.421875 C 8.96875 -22.753906 9.191406 -21.539062 9.640625 -20.78125 C 10.097656 -20.019531 11.203125 -19.640625 12.953125 -19.640625 C 14.191406 -19.640625 15.398438 -19.863281 16.578125 -20.3125 C 17.765625 -20.769531 18.84375 -21.398438 19.8125 -22.203125 C 20.789062 -23.015625 21.5625 -23.960938 22.125 -25.046875 C 22.695312 -26.140625 22.984375 -27.328125 22.984375 -28.609375 C 22.984375 -29.328125 22.925781 -30.0625 22.8125 -30.8125 C 22.695312 -31.570312 22.445312 -32.269531 22.0625 -32.90625 C 21.6875 -33.550781 21.203125 -34.078125 20.609375 -34.484375 C 20.015625 -34.890625 19.242188 -35.09375 18.296875 -35.09375 C 16.867188 -35.09375 15.570312 -34.769531 14.40625 -34.125 C 13.25 -33.488281 12.265625 -32.660156 11.453125 -31.640625 C 10.648438 -30.617188 10.035156 -29.476562 9.609375 -28.21875 C 9.179688 -26.96875 8.96875 -25.703125 8.96875 -24.421875 Z M 8.96875 -24.421875 "/></g></g></g><g fill="#4093a4" fill-opacity="1"><g transform="translate(300.155394, 180.249553)"><g><path d="M -0.140625 -35.875 C -0.140625 -36.019531 -0.117188 -36.140625 -0.078125 -36.234375 C -0.078125 -36.328125 -0.0507812 -36.445312 0 -36.59375 C 0.1875 -36.820312 0.46875 -37.125 0.84375 -37.5 C 1.226562 -37.882812 1.46875 -38.078125 1.5625 -38.078125 L 15.875 -38.078125 C 15.875 -38.597656 15.800781 -39.425781 15.65625 -40.5625 C 15.519531 -41.707031 15.390625 -42.96875 15.265625 -44.34375 C 15.148438 -45.71875 15.113281 -47.148438 15.15625 -48.640625 C 15.207031 -50.140625 15.410156 -51.492188 15.765625 -52.703125 C 16.117188 -53.921875 16.6875 -54.921875 17.46875 -55.703125 C 18.257812 -56.484375 19.363281 -56.875 20.78125 -56.875 C 20.78125 -52.082031 21.113281 -48.238281 21.78125 -45.34375 C 22.445312 -42.445312 23.335938 -40.210938 24.453125 -38.640625 C 25.566406 -37.078125 26.832031 -36.054688 28.25 -35.578125 C 29.675781 -35.109375 31.132812 -34.910156 32.625 -34.984375 C 34.125 -35.054688 35.585938 -35.28125 37.015625 -35.65625 C 38.441406 -36.039062 39.710938 -36.300781 40.828125 -36.4375 C 41.941406 -36.582031 42.828125 -36.476562 43.484375 -36.125 C 44.148438 -35.769531 44.484375 -34.925781 44.484375 -33.59375 C 44.484375 -32.601562 44.257812 -31.894531 43.8125 -31.46875 C 43.363281 -31.039062 42.5 -30.707031 41.21875 -30.46875 C 40.832031 -30.414062 40.203125 -30.328125 39.328125 -30.203125 C 38.453125 -30.085938 37.46875 -29.984375 36.375 -29.890625 C 35.28125 -29.796875 34.113281 -29.6875 32.875 -29.5625 C 31.644531 -29.445312 30.484375 -29.34375 29.390625 -29.25 C 28.304688 -29.15625 27.3125 -29.097656 26.40625 -29.078125 C 25.507812 -29.054688 24.847656 -29.046875 24.421875 -29.046875 C 24.421875 -28.804688 24.394531 -28.398438 24.34375 -27.828125 C 24.289062 -27.265625 24.265625 -26.882812 24.265625 -26.6875 C 24.265625 -24.601562 24.597656 -22.578125 25.265625 -20.609375 C 25.929688 -18.640625 26.65625 -16.679688 27.4375 -14.734375 C 28.21875 -12.785156 28.941406 -10.835938 29.609375 -8.890625 C 30.273438 -6.953125 30.609375 -4.9375 30.609375 -2.84375 C 30.609375 -2.46875 30.570312 -2.078125 30.5 -1.671875 C 30.425781 -1.265625 30.28125 -0.90625 30.0625 -0.59375 C 29.851562 -0.289062 29.546875 -0.0546875 29.140625 0.109375 C 28.742188 0.273438 28.1875 0.238281 27.46875 0 C 25.664062 -0.476562 24.328125 -1.5 23.453125 -3.0625 C 22.578125 -4.625 21.925781 -6.484375 21.5 -8.640625 C 21.070312 -10.804688 20.785156 -13.097656 20.640625 -15.515625 C 20.492188 -17.929688 20.265625 -20.195312 19.953125 -22.3125 C 19.648438 -24.425781 19.164062 -26.226562 18.5 -27.71875 C 17.84375 -29.21875 16.773438 -30.132812 15.296875 -30.46875 L 1.5625 -33.59375 C 1.375 -33.59375 1.085938 -33.796875 0.703125 -34.203125 C 0.328125 -34.609375 0.09375 -34.90625 0 -35.09375 C -0.0507812 -35.1875 -0.078125 -35.304688 -0.078125 -35.453125 C -0.117188 -35.546875 -0.140625 -35.6875 -0.140625 -35.875 Z M -0.140625 -35.875 "/></g></g></g><g fill="#4093a4" fill-opacity="1"><g transform="translate(345.924001, 180.249553)"><g><path d="M 32.03125 -9.1875 C 30.226562 -7.945312 28.671875 -6.835938 27.359375 -5.859375 C 26.054688 -4.890625 24.785156 -4.070312 23.546875 -3.40625 C 22.316406 -2.75 21.003906 -2.253906 19.609375 -1.921875 C 18.210938 -1.585938 16.492188 -1.421875 14.453125 -1.421875 C 10.035156 -1.421875 6.757812 -2.59375 4.625 -4.9375 C 2.488281 -7.289062 1.421875 -10.796875 1.421875 -15.453125 C 1.421875 -17.253906 1.65625 -19.125 2.125 -21.0625 C 2.601562 -23.007812 3.304688 -24.941406 4.234375 -26.859375 C 5.160156 -28.785156 6.265625 -30.613281 7.546875 -32.34375 C 8.828125 -34.082031 10.273438 -35.613281 11.890625 -36.9375 C 13.503906 -38.269531 15.222656 -39.328125 17.046875 -40.109375 C 18.867188 -40.890625 20.800781 -41.28125 22.84375 -41.28125 C 26.257812 -40.945312 28.941406 -40.101562 30.890625 -38.75 C 32.835938 -37.40625 34.304688 -35.675781 35.296875 -33.5625 C 36.296875 -31.445312 36.984375 -29.097656 37.359375 -26.515625 C 37.742188 -23.929688 38.039062 -21.257812 38.25 -18.5 C 38.46875 -15.75 38.742188 -13 39.078125 -10.25 C 39.410156 -7.5 40.097656 -4.960938 41.140625 -2.640625 C 40.523438 -1.066406 39.941406 0.0351562 39.390625 0.671875 C 38.847656 1.316406 38.242188 1.425781 37.578125 1 C 36.921875 0.570312 36.148438 -0.46875 35.265625 -2.125 C 34.390625 -3.789062 33.3125 -6.144531 32.03125 -9.1875 Z M 7.46875 -15.296875 C 7.46875 -12.597656 7.976562 -10.617188 9 -9.359375 C 10.019531 -8.097656 11.835938 -7.46875 14.453125 -7.46875 C 16.398438 -7.46875 18.257812 -7.8125 20.03125 -8.5 C 21.8125 -9.1875 23.363281 -10.132812 24.6875 -11.34375 C 26.019531 -12.5625 27.085938 -14.023438 27.890625 -15.734375 C 28.703125 -17.441406 29.109375 -19.335938 29.109375 -21.421875 C 29.109375 -22.273438 29.128906 -23.472656 29.171875 -25.015625 C 29.222656 -26.554688 29.128906 -28.085938 28.890625 -29.609375 C 28.660156 -31.128906 28.210938 -32.445312 27.546875 -33.5625 C 26.878906 -34.675781 25.882812 -35.234375 24.5625 -35.234375 C 22.09375 -35.234375 19.8125 -34.601562 17.71875 -33.34375 C 15.632812 -32.09375 13.832031 -30.492188 12.3125 -28.546875 C 10.789062 -26.597656 9.601562 -24.445312 8.75 -22.09375 C 7.894531 -19.75 7.46875 -17.484375 7.46875 -15.296875 Z M 7.46875 -15.296875 "/></g></g></g></svg>